<svg width="255" height="255" viewBox="0 0 255 255" fill="none" xmlns="http://www.w3.org/2000/svg">
<g clip-path="url(#clip0_14_26)">
<path d="M127.5 137.792C133.184 137.792 137.792 133.184 137.792 127.5C137.792 121.816 133.184 117.208 127.5 117.208C121.816 117.208 117.208 121.816 117.208 127.5C117.208 133.184 121.816 137.792 127.5 137.792Z" stroke="black" stroke-width="12" stroke-linecap="round" stroke-linejoin="round"/>
<path d="M211.892 211.892C232.887 191 212.098 136.145 165.579 89.4208C118.855 42.9025 64.0004 22.1133 43.1083 43.1083C22.1133 64.0004 42.9025 118.855 89.4208 165.579C136.145 212.097 191 232.887 211.892 211.892Z" stroke="black" stroke-width="12" stroke-linecap="round" stroke-linejoin="round"/>
<path d="M165.579 165.579C212.098 118.855 232.887 64.0004 211.892 43.1083C191 22.1133 136.145 42.9025 89.4208 89.4208C42.9025 136.145 22.1133 191 43.1083 211.892C64.0004 232.887 118.855 212.097 165.579 165.579Z" stroke="black" stroke-width="12" stroke-linecap="round" stroke-linejoin="round"/>
</g>
<defs>
<clipPath id="clip0_14_26">
<rect width="255" height="255" fill="white"/>
</clipPath>
</defs>
</svg>
