<svg width="255" height="255" viewBox="0 0 255 255" fill="none" xmlns="http://www.w3.org/2000/svg">
<g clip-path="url(#clip0_10_59)">
<rect width="255" height="255" rx="40" fill="#D9D9D9"/>
<g clip-path="url(#clip1_10_59)">
<path d="M93.1468 156.748L87.5469 158.25L86.0461 163.849L90.1471 167.95L95.7472 166.451L97.2496 160.851L93.1468 156.748ZM89.8609 164.131C88.8765 163.147 88.8765 161.549 89.8609 160.564C90.847 159.575 92.4451 159.575 93.4312 160.561C94.4156 161.545 94.4138 163.145 93.4276 164.131C92.4432 165.116 90.8452 165.116 89.8609 164.131Z" fill="black"/>
<path d="M160.848 97.2497L166.446 95.7457L167.952 90.1456L163.845 86.0428L158.245 87.5452L156.746 93.1453L160.848 97.2497ZM164.133 89.8663C165.118 90.8507 165.12 92.447 164.133 93.4298C163.149 94.4177 161.553 94.4159 160.568 93.4314C159.58 92.4435 159.582 90.8473 160.568 89.8647C161.553 88.8803 163.147 88.8802 164.133 89.8663Z" fill="black"/>
<path d="M186.654 119.351L196.445 109.559C198.124 107.881 198.818 105.61 198.59 103.416L205.99 96.0171C221.082 80.9246 222.57 57.938 209.308 44.6817C196.053 31.4229 173.068 32.9098 157.972 48.0057L150.571 55.4066C148.38 55.1772 146.114 55.8696 144.433 57.5441L134.643 67.3374C132.966 69.0107 132.279 71.2821 132.505 73.4729L94.9216 111.057L94.9233 111.058L73.4822 132.499C71.2839 132.274 69.0126 132.964 67.3375 134.639L57.5477 144.433C55.8691 146.108 55.1768 148.384 55.4061 150.576L48.0088 157.973C32.9147 173.067 31.4265 196.05 44.6877 209.311C57.9394 222.57 80.9257 221.082 96.0216 205.986L103.419 198.588C105.614 198.814 107.883 198.122 109.562 196.443L119.352 186.654C121.027 184.979 121.718 182.711 121.489 180.518L142.938 159.073L159.075 142.933L180.514 121.493C182.711 121.721 184.978 121.027 186.653 119.352L186.654 119.351ZM169.159 75.0638L178.925 84.8304C180.743 86.648 180.746 89.5954 178.927 91.4143L162.575 75.0624C164.394 73.2471 167.34 73.2453 169.159 75.0641L169.159 75.0638ZM146.528 59.6388C148.333 57.8339 151.25 57.8357 153.055 59.6406L156.318 62.9032C158.123 64.7081 158.123 67.6237 156.318 69.4286L146.523 79.2235C144.718 81.0284 141.803 81.0284 139.998 79.2235L136.735 75.9609C134.93 74.156 134.928 71.2386 136.733 69.4338L146.528 59.6388ZM69.4311 156.319C67.6262 158.124 64.7001 158.12 62.8987 156.319L59.6342 153.055C57.8328 151.253 57.8346 148.332 59.6396 146.527L69.4311 136.736C71.236 134.931 74.1515 134.935 75.9529 136.736L79.2173 140C81.0188 141.802 81.0275 144.723 79.2227 146.527L69.4311 156.319ZM156.688 73.195L168.546 85.0532C168.614 85.1175 168.695 85.1598 168.765 85.2293C168.831 85.2954 168.873 85.3771 168.938 85.4449L180.748 97.255L174.35 103.652L171.554 100.856C170.216 99.5176 168.266 99.1815 166.617 99.838C166.539 99.8664 166.389 99.8525 166.215 99.8207C162.849 101.413 158.716 100.847 155.932 98.0632C153.121 95.2525 152.575 91.0714 154.223 87.69C154.213 87.5938 154.2 87.4964 154.223 87.4443C154.882 85.7959 154.544 83.8455 153.209 82.5105L150.289 79.5914L156.686 73.1929L156.688 73.195ZM157.038 109.693L144.302 96.9575C143.304 95.9592 143.306 94.3409 144.302 93.341L151.666 85.9771C151.649 86.1197 151.621 86.257 151.568 86.3949C151.478 86.6139 151.422 86.826 151.39 87.0247C149.504 91.4781 150.477 96.6558 153.907 100.089C157.273 103.452 162.342 104.459 166.741 102.709C167.017 102.69 167.314 102.631 167.622 102.515C167.713 102.481 167.806 102.471 167.898 102.449L160.656 109.692C159.656 110.692 158.036 110.691 157.038 109.693ZM109.689 160.651L102.325 168.015C102.345 167.875 102.372 167.734 102.425 167.599C102.513 167.382 102.569 167.166 102.601 166.968C104.489 162.516 103.518 157.337 100.086 153.905C96.7216 150.541 91.6471 149.535 87.2517 151.285C86.9741 151.306 86.6786 151.359 86.3721 151.477C86.2777 151.515 86.1885 151.522 86.0928 151.546L93.3373 144.302C94.3356 143.304 95.9538 143.302 96.9538 144.302L109.688 157.036C110.685 158.035 110.686 159.654 109.689 160.651L109.689 160.651ZM84.827 178.927L75.0622 169.162C73.2445 167.344 73.2434 164.395 75.0622 162.576L91.414 178.928C89.5959 180.744 86.6461 180.746 84.8267 178.926L84.827 178.927ZM97.3011 180.8L85.4429 168.942C85.3768 168.872 85.2969 168.832 85.2308 168.766C85.1613 168.696 85.1172 168.616 85.0512 168.55L73.2428 156.738L79.6383 150.343L82.4363 153.141C83.7712 154.475 85.7256 154.813 87.3776 154.159C87.4506 154.129 87.6035 154.143 87.7762 154.173C91.1438 152.582 95.2756 153.142 98.0608 155.932C100.872 158.743 101.414 162.924 99.7694 166.309C99.7781 166.403 99.7885 166.503 99.7659 166.551C99.1124 168.198 99.449 170.153 100.784 171.488L103.699 174.404L97.3028 180.802L97.3011 180.8ZM107.468 194.352C105.663 196.157 102.741 196.16 100.936 194.355L97.6731 191.093C95.87 189.289 95.8735 186.367 97.6765 184.56L107.468 174.772C109.273 172.967 112.188 172.971 113.99 174.772L117.254 178.037C119.059 179.842 119.063 182.757 117.258 184.562L107.468 194.352ZM184.561 117.259C182.76 119.06 179.841 119.06 178.039 117.259L174.773 113.993C172.973 112.193 172.966 109.27 174.771 107.466L184.564 97.6723C186.369 95.8675 189.292 95.8744 191.092 97.6741L194.358 100.94C196.159 102.742 196.159 105.661 194.354 107.466L184.561 117.259Z" fill="black"/>
</g>
</g>
<defs>
<clipPath id="clip0_10_59">
<rect width="255" height="255" fill="white"/>
</clipPath>
<clipPath id="clip1_10_59">
<rect width="251.724" height="251.724" fill="white" transform="translate(126.996 -51) rotate(45)"/>
</clipPath>
</defs>
</svg>
